<?xml version="1.0" encoding="utf-8"?>
<!-- Generator: Adobe Illustrator 22.1.0, SVG Export Plug-In . SVG Version: 6.00 Build 0)  -->
<svg version="1.1" id="Camada_1" xmlns="http://www.w3.org/2000/svg" xmlns:xlink="http://www.w3.org/1999/xlink" x="0px" y="0px"
	 viewBox="0 0 751.4 319.6" style="enable-background:new 0 0 751.4 319.6;" xml:space="preserve">
<style type="text/css">
	.st0{fill:#FFFFFF;}
</style>
<path class="st0" d="M672.5,226.9c-17.3,0-34.6-4.5-50.9-11.9c-38.6-17.4-71.1-51.8-92-96.3c-1.4-3.3-2.8-6.5-4.3-9.7
	c0-0.1-0.1-0.2-0.2-0.4C494.4,43.5,439,0,375.7,0S257,43.5,226.3,108.5c0,0.1-0.1,0.2-0.2,0.4c-1.5,3.2-2.9,6.4-4.3,9.7
	c-20.9,44.5-53.4,78.9-92,96.3c-16.4,7.4-33.6,11.9-50.9,11.9c-1.9,0.1-78.9,0-78.9,0v92.7h375.7h375.7v-92.7
	C751.4,226.8,674.4,227,672.5,226.9z"/>
</svg>
